Coordinates
version=1
nRows=4
nColumns=107
inDegrees=yes

Units are S.I. units (second, meters, Newtons, ...)
If the header above contains a line with 'inDegrees', this indicates whether rotational values are in degrees (yes) or radians (no).

endheader
time	sternoclavicular_r2	sternoclavicular_r3	unrotscap_r3	unrotscap_r2	acromioclavicular_r2	acromioclavicular_r3	acromioclavicular_r1	unrothum_r1	unrothum_r3	unrothum_r2	elv_angle	shoulder_elv	shoulder1_r2	shoulder_rot	elbow_flexion	pro_sup	deviation	flexion	proximal_distal_r1	proximal_distal_r3	cmc_flexion	cmc_abduction	mp_flexion	ip_flexion	mcp2_flexion	mcp2_abduction	pm2_flexion	md2_flexion	mcp3_flexion	mcp3_abduction	pm3_flexion	md3_flexion	mcp4_flexion	mcp4_abduction	pm4_flexion	md4_flexion	mcp5_flexion	mcp5_abduction	pm5_flexion	md5_flexion	bicpt_tx	bicpt_ty	bicpt_tz	bicpt2_tx	bicpt2_ty	bicpt2_tz	ptpt_tx	ptpt_ty	ptpt_tz	FCUpt_tx	FCUpt_ty	FCUpt_tz	EDCpt_tx	EDCpt_ty	EDCpt_tz	APLpt_tx	APLpt_ty	APLpt_tz	FPLpt_tx	FPLpt_ty	FPLpt_tz	FPLpt2_tx	FPLpt2_ty	FPLpt2_tz	PEC1pt2_tx	PEC1pt2_ty	PEC1pt2_tz	PEC1pt3_tx	PEC1pt3_ty	PEC1pt3_tz	PEC2pt2_tx	PEC2pt2_ty	PEC2pt2_tz	PEC2pt3_tx	PEC2pt3_ty	PEC2pt3_tz	PEC3pt2_tx	PEC3pt2_ty	PEC3pt2_tz	PEC3pt3_tx	PEC3pt3_ty	PEC3pt3_tz	DELT2pt2a_tx	DELT2pt2a_ty	DELT2pt2a_tz	DELT2pt2_tx	DELT2pt2_ty	DELT2pt2_tz	LAT1pt2_tx	LAT1pt2_ty	LAT1pt2_tz	LAT1pt3_tx	LAT1pt3_ty	LAT1pt3_tz	LAT2pt2_tx	LAT2pt2_ty	LAT2pt2_tz	LAT2pt3_tx	LAT2pt3_ty	LAT2pt3_tz	LAT3pt2_tx	LAT3pt2_ty	LAT3pt2_tz	LAT3pt3_tx	LAT3pt3_ty	LAT3pt3_tz
      0.80000000	     -0.31425115	      0.13310196	     -0.13310196	      0.31425115	     -0.06362947	      0.51423096	      0.23114328	     -0.23114328	     -0.51423096	      0.06362947	    101.11013171	     74.40175327	     -1.76470471	    -35.43148515	     30.53141844	     75.69006183	      0.32037160	     -0.65177846	      0.35077951	     -0.32588923	     33.40452312	    -13.71177075	    -15.08941543	     -2.89635806	     74.71173585	     13.52102914	     78.00132627	     86.12479552	     86.11520587	      3.99467421	     81.57005150	     59.86044210	     87.18642763	    -13.01459854	     92.85906676	     42.24277502	     96.40197845	    -14.21916602	     87.29028076	      5.55072416	      0.00090988	     -0.03109937	     -0.00486366	      0.01518408	     -0.01849401	     -0.00276710	      0.00195736	     -0.06851629	     -0.00614724	      0.01157003	     -0.18257178	     -0.00016016	     -0.00908279	      0.00302864	     -0.00045497	      0.00031110	      0.00012444	      0.00062221	      0.00039821	      0.00119464	      0.00067198	     -0.00001200	     -0.00021519	     -0.00025823	      0.00243873	      0.00855621	      0.00595215	     -0.00797753	      0.01926180	     -0.01826978	      0.00243873	      0.00855621	      0.00595215	      0.00053735	      0.01785644	     -0.00938290	      0.00388055	      0.00475800	      0.01580054	      0.00000000	      0.00740080	      0.00000000	     -0.00698550	     -0.03228212	     -0.00610009	      0.02108865	     -0.00094640	     -0.01031303	     -0.00086802	      0.01454969	     -0.00595215	      0.00239739	      0.02099785	     -0.01736042	     -0.00582814	      0.01260697	     -0.00533213	     -0.01215230	      0.02661932	     -0.02980206	     -0.02281656	      0.01409501	     -0.00715084	     -0.01512837	      0.03075275	     -0.03724224
      0.83333333	     -0.31419290	      0.13307728	     -0.13307728	      0.31419290	     -0.06361767	      0.51413564	      0.23110043	     -0.23110043	     -0.51413564	      0.06361767	    101.02486789	     74.38796227	     -1.76321657	    -35.39038167	     30.69788004	     75.80353183	      0.32198936	     -0.65316074	      0.35212446	     -0.32658037	     33.35531989	    -13.69897027	    -15.11686475	     -2.90703306	     74.71782797	     13.51118332	     77.99844478	     86.11773543	     86.17176064	      3.99061598	     81.58722630	     59.85720987	     87.16989654	    -13.03618530	     92.83543372	     42.23292339	     96.38954894	    -14.21758450	     87.27894859	      5.54464416	      0.00091539	     -0.03111845	     -0.00486673	      0.01517497	     -0.01853923	     -0.00274928	      0.00194897	     -0.06852172	     -0.00615638	      0.01158271	     -0.18256827	     -0.00015790	     -0.00909640	      0.00303451	     -0.00045799	      0.00031100	      0.00012440	      0.00062200	      0.00039808	      0.00119425	      0.00067176	     -0.00001197	     -0.00021578	     -0.00025894	      0.00243827	      0.00855462	      0.00595104	     -0.00797605	      0.01925823	     -0.01826639	      0.00243827	      0.00855462	      0.00595104	      0.00053725	      0.01785313	     -0.00938116	      0.00388001	      0.00475712	      0.01579920	      0.00000000	      0.00739804	      0.00000000	     -0.00698421	     -0.03227614	     -0.00609779	      0.02107324	     -0.00094494	     -0.01029065	     -0.00086786	      0.01454699	     -0.00595104	      0.00239695	      0.02099395	     -0.01735721	     -0.00582706	      0.01260464	     -0.00533114	     -0.01215004	      0.02661438	     -0.02979654	     -0.02281233	      0.01409240	     -0.00714952	     -0.01512557	      0.03074705	     -0.03723534
      0.86666667	     -0.31470461	      0.13329402	     -0.13329402	      0.31470461	     -0.06372128	      0.51497299	      0.23147682	     -0.23147682	     -0.51497299	      0.06372128	    101.05377940	     74.50911447	     -1.76372117	    -35.11289151	     30.44944227	     76.16310342	      0.32846839	     -0.68060226	      0.35746823	     -0.34030113	     33.69031571	    -13.82188418	    -15.96099530	     -3.48351557	     74.95586874	     13.50321686	     76.82808653	     83.86328054	     86.10590253	      3.88952261	     80.24818386	     57.95545400	     86.67651859	    -13.12310698	     90.00299966	     41.54437380	     95.89585304	    -14.21020790	     83.78056354	      5.58524613	      0.00090717	     -0.03108997	     -0.00486214	      0.01514619	     -0.01847174	     -0.00269284	      0.00192241	     -0.06853890	     -0.00618535	      0.01162289	     -0.18255713	     -0.00015075	     -0.00913955	      0.00305311	     -0.00046755	      0.00030844	      0.00012338	      0.00061688	      0.00039480	      0.00118441	      0.00066623	     -0.00001218	     -0.00021168	     -0.00025402	      0.00244225	      0.00856856	      0.00596073	     -0.00798904	      0.01928960	     -0.01829614	      0.00244225	      0.00856856	      0.00596073	      0.00053812	      0.01788220	     -0.00939644	      0.00388468	      0.00476486	      0.01581092	      0.00000000	      0.00742231	      0.00000000	     -0.00699558	     -0.03232870	     -0.00611795	      0.02097003	     -0.00093509	     -0.01013897	     -0.00086927	      0.01457068	     -0.00596073	      0.00240085	      0.02102815	     -0.01738547	     -0.00583655	      0.01262517	     -0.00533982	     -0.01216983	      0.02665773	     -0.02984506	     -0.02284948	      0.01411535	     -0.00716116	     -0.01515020	      0.03079713	     -0.03729598
      0.90000000	     -0.31432302	      0.13313239	     -0.13313239	      0.31432302	     -0.06364402	      0.51434856	      0.23119614	     -0.23119614	     -0.51434856	      0.06364402	    101.12213889	     74.41876799	     -1.76491427	    -35.49928209	     30.56572399	     76.92107807	      0.33163506	     -0.68370630	      0.36005461	     -0.34185315	     33.55972659	    -13.75602692	    -16.38071056	     -3.74808811	     72.23033583	     13.46311982	     75.45232117	     83.46287827	     84.22981611	      4.16663402	     78.93156402	     57.25962802	     84.00140504	    -13.03917517	     87.99709017	     41.05779284	     92.69731946	    -14.20768542	     82.25738575	      5.51523926	      0.00091102	     -0.03110330	     -0.00486429	      0.01508412	     -0.01850333	     -0.00257302	      0.00186640	     -0.06857511	     -0.00624641	      0.01170777	     -0.18253349	     -0.00013524	     -0.00923051	      0.00309251	     -0.00048803	      0.00030806	      0.00012322	      0.00061612	      0.00039431	      0.00118294	      0.00066541	     -0.00001210	     -0.00021330	     -0.00025596	      0.00243928	      0.00855817	      0.00595351	     -0.00797935	      0.01926621	     -0.01827396	      0.00243928	      0.00855817	      0.00595351	      0.00053747	      0.01786052	     -0.00938504	      0.00388120	      0.00475909	      0.01580219	      0.00000000	      0.00740420	      0.00000000	     -0.00698710	     -0.03228950	     -0.00610292	      0.02111370	     -0.00094881	     -0.01035021	     -0.00086822	      0.01455302	     -0.00595351	      0.00239794	      0.02100265	     -0.01736439	     -0.00582948	      0.01260986	     -0.00533335	     -0.01215508	      0.02662540	     -0.02980888	     -0.02282177	      0.01409823	     -0.00715248	     -0.01513183	      0.03075978	     -0.03725076
